<mxfile host="app.diagrams.net" modified="2022-04-13T14:59:07.219Z" agent="5.0 (Windows NT 10.0; Win64; x64) AppleWebKit/537.36 (KHTML, like Gecko) Chrome/100.0.4896.75 Safari/537.36 Edg/100.0.1185.36" etag="K8EI9jdgkq2VgvvYg8uI" version="17.4.3" type="github" pages="2">
  <diagram id="dueWg7vu715GVRX9rq3l" name="Main features">
    <mxGraphModel dx="1185" dy="1793" grid="1" gridSize="10" guides="1" tooltips="1" connect="1" arrows="1" fold="1" page="1" pageScale="1" pageWidth="850" pageHeight="1100" math="0" shadow="0">
      <root>
        <mxCell id="0" />
        <mxCell id="1" parent="0" />
        <mxCell id="2LXbQo--C6hEQ35v8pxF-1" value="EA" style="shape=umlActor;verticalLabelPosition=bottom;verticalAlign=top;html=1;outlineConnect=0;fontFamily=Verdana;fontSize=16;fillColor=#e1d5e7;strokeColor=#9673a6;" vertex="1" parent="1">
          <mxGeometry x="310" y="250" width="30" height="60" as="geometry" />
        </mxCell>
        <mxCell id="2LXbQo--C6hEQ35v8pxF-2" value="Draw trend line and key level" style="ellipse;whiteSpace=wrap;html=1;fontFamily=Verdana;fontSize=16;fillColor=#ffe6cc;strokeColor=#d79b00;" vertex="1" parent="1">
          <mxGeometry x="490" y="150" width="140" height="70" as="geometry" />
        </mxCell>
        <mxCell id="2LXbQo--C6hEQ35v8pxF-3" value="Take the order" style="ellipse;whiteSpace=wrap;html=1;fontFamily=Verdana;fontSize=16;fillColor=#f5f5f5;fontColor=#333333;strokeColor=#666666;" vertex="1" parent="1">
          <mxGeometry x="610" y="320" width="180" height="110" as="geometry" />
        </mxCell>
        <mxCell id="2LXbQo--C6hEQ35v8pxF-4" value="Save logs, send orders to cell phone by telegram message" style="ellipse;whiteSpace=wrap;html=1;fontFamily=Verdana;fontSize=16;fillColor=#d5e8d4;strokeColor=#82b366;" vertex="1" parent="1">
          <mxGeometry x="250" y="480" width="230" height="100" as="geometry" />
        </mxCell>
        <mxCell id="2LXbQo--C6hEQ35v8pxF-6" value="" style="endArrow=open;endFill=1;endSize=12;html=1;rounded=0;fontFamily=Verdana;fontSize=16;entryX=0;entryY=0.5;entryDx=0;entryDy=0;exitX=0.5;exitY=0.5;exitDx=0;exitDy=0;exitPerimeter=0;" edge="1" parent="1" source="2LXbQo--C6hEQ35v8pxF-1" target="2LXbQo--C6hEQ35v8pxF-2">
          <mxGeometry width="160" relative="1" as="geometry">
            <mxPoint x="160" y="380" as="sourcePoint" />
            <mxPoint x="320" y="380" as="targetPoint" />
          </mxGeometry>
        </mxCell>
        <mxCell id="2LXbQo--C6hEQ35v8pxF-8" value="" style="endArrow=open;endFill=1;endSize=12;html=1;rounded=0;fontFamily=Verdana;fontSize=16;exitX=0.5;exitY=0.5;exitDx=0;exitDy=0;exitPerimeter=0;entryX=0;entryY=0.5;entryDx=0;entryDy=0;" edge="1" parent="1" source="2LXbQo--C6hEQ35v8pxF-1" target="2LXbQo--C6hEQ35v8pxF-3">
          <mxGeometry width="160" relative="1" as="geometry">
            <mxPoint x="335" y="290" as="sourcePoint" />
            <mxPoint x="500" y="195" as="targetPoint" />
          </mxGeometry>
        </mxCell>
        <mxCell id="2LXbQo--C6hEQ35v8pxF-10" value="" style="endArrow=open;endFill=1;endSize=12;html=1;rounded=0;fontFamily=Verdana;fontSize=16;entryX=0.5;entryY=0;entryDx=0;entryDy=0;exitX=0.5;exitY=0.5;exitDx=0;exitDy=0;exitPerimeter=0;" edge="1" parent="1" source="2LXbQo--C6hEQ35v8pxF-1" target="2LXbQo--C6hEQ35v8pxF-4">
          <mxGeometry width="160" relative="1" as="geometry">
            <mxPoint x="335" y="290" as="sourcePoint" />
            <mxPoint x="490" y="325" as="targetPoint" />
          </mxGeometry>
        </mxCell>
        <mxCell id="SldOsNfj7_O7OC7551_o-1" value="Draw trend line and key level" style="ellipse;whiteSpace=wrap;html=1;fontFamily=Verdana;fontSize=16;fillColor=#ffe6cc;strokeColor=#d79b00;" vertex="1" parent="1">
          <mxGeometry x="490" y="150" width="140" height="70" as="geometry" />
        </mxCell>
        <mxCell id="SldOsNfj7_O7OC7551_o-2" value="Determine new highs &amp;amp; lows" style="ellipse;whiteSpace=wrap;html=1;fontFamily=Verdana;fontSize=16;fillColor=#ffe6cc;strokeColor=#d79b00;" vertex="1" parent="1">
          <mxGeometry x="730" y="-40" width="190" height="110" as="geometry" />
        </mxCell>
        <mxCell id="SldOsNfj7_O7OC7551_o-3" value="Find old &amp;amp; useless highs &amp;amp; lows, then delete them" style="ellipse;whiteSpace=wrap;html=1;fontFamily=Verdana;fontSize=16;fillColor=#ffe6cc;strokeColor=#d79b00;" vertex="1" parent="1">
          <mxGeometry x="710" y="110" width="260" height="100" as="geometry" />
        </mxCell>
        <mxCell id="SldOsNfj7_O7OC7551_o-4" value="Create a key area instead of key line" style="ellipse;whiteSpace=wrap;html=1;fontFamily=Verdana;fontSize=16;fillColor=#ffe6cc;strokeColor=#d79b00;" vertex="1" parent="1">
          <mxGeometry x="440" y="-60" width="260" height="100" as="geometry" />
        </mxCell>
        <mxCell id="SldOsNfj7_O7OC7551_o-6" value="" style="endArrow=open;endFill=1;endSize=12;html=1;rounded=0;fontFamily=Verdana;fontSize=16;entryX=0.5;entryY=1;entryDx=0;entryDy=0;exitX=0.5;exitY=0;exitDx=0;exitDy=0;" edge="1" parent="1" source="SldOsNfj7_O7OC7551_o-1" target="SldOsNfj7_O7OC7551_o-4">
          <mxGeometry width="160" relative="1" as="geometry">
            <mxPoint x="335" y="289.9999999999998" as="sourcePoint" />
            <mxPoint x="500.00000000000045" y="194.99999999999977" as="targetPoint" />
          </mxGeometry>
        </mxCell>
        <mxCell id="SldOsNfj7_O7OC7551_o-8" value="" style="endArrow=open;endFill=1;endSize=12;html=1;rounded=0;fontFamily=Verdana;fontSize=16;entryX=0.058;entryY=0.788;entryDx=0;entryDy=0;exitX=1;exitY=0;exitDx=0;exitDy=0;entryPerimeter=0;" edge="1" parent="1" source="SldOsNfj7_O7OC7551_o-1" target="SldOsNfj7_O7OC7551_o-2">
          <mxGeometry width="160" relative="1" as="geometry">
            <mxPoint x="345" y="299.9999999999998" as="sourcePoint" />
            <mxPoint x="510.00000000000045" y="204.99999999999977" as="targetPoint" />
          </mxGeometry>
        </mxCell>
        <mxCell id="SldOsNfj7_O7OC7551_o-10" value="" style="endArrow=open;endFill=1;endSize=12;html=1;rounded=0;fontFamily=Verdana;fontSize=16;entryX=0;entryY=0.5;entryDx=0;entryDy=0;exitX=1;exitY=0.5;exitDx=0;exitDy=0;" edge="1" parent="1" source="SldOsNfj7_O7OC7551_o-1" target="SldOsNfj7_O7OC7551_o-3">
          <mxGeometry width="160" relative="1" as="geometry">
            <mxPoint x="619.7431151624435" y="170.37469546413672" as="sourcePoint" />
            <mxPoint x="751.0199999999998" y="56.680000000000064" as="targetPoint" />
          </mxGeometry>
        </mxCell>
        <mxCell id="SldOsNfj7_O7OC7551_o-13" value="Entry, SL, TP" style="ellipse;whiteSpace=wrap;html=1;fontFamily=Verdana;fontSize=16;fillColor=#f5f5f5;fontColor=#333333;strokeColor=#666666;" vertex="1" parent="1">
          <mxGeometry x="860" y="280" width="170" height="95" as="geometry" />
        </mxCell>
        <mxCell id="SldOsNfj7_O7OC7551_o-14" value="" style="endArrow=open;endFill=1;endSize=12;html=1;rounded=0;fontFamily=Verdana;fontSize=16;exitX=1;exitY=0.5;exitDx=0;exitDy=0;entryX=0;entryY=0.5;entryDx=0;entryDy=0;" edge="1" parent="1" source="2LXbQo--C6hEQ35v8pxF-3" target="SldOsNfj7_O7OC7551_o-13">
          <mxGeometry width="160" relative="1" as="geometry">
            <mxPoint x="335" y="290" as="sourcePoint" />
            <mxPoint x="620" y="385" as="targetPoint" />
          </mxGeometry>
        </mxCell>
        <mxCell id="SldOsNfj7_O7OC7551_o-15" value="Tradevolume" style="ellipse;whiteSpace=wrap;html=1;fontFamily=Verdana;fontSize=16;fillColor=#f5f5f5;fontColor=#333333;strokeColor=#666666;" vertex="1" parent="1">
          <mxGeometry x="860" y="400" width="170" height="95" as="geometry" />
        </mxCell>
        <mxCell id="SldOsNfj7_O7OC7551_o-16" value="" style="endArrow=open;endFill=1;endSize=12;html=1;rounded=0;fontFamily=Verdana;fontSize=16;exitX=1;exitY=1;exitDx=0;exitDy=0;entryX=0;entryY=0.5;entryDx=0;entryDy=0;" edge="1" parent="1" source="2LXbQo--C6hEQ35v8pxF-3" target="SldOsNfj7_O7OC7551_o-15">
          <mxGeometry width="160" relative="1" as="geometry">
            <mxPoint x="800" y="385" as="sourcePoint" />
            <mxPoint x="870" y="337.5" as="targetPoint" />
          </mxGeometry>
        </mxCell>
        <mxCell id="SldOsNfj7_O7OC7551_o-17" value="Manage equity and risk" style="ellipse;whiteSpace=wrap;html=1;fontFamily=Verdana;fontSize=16;fillColor=#f5f5f5;fontColor=#333333;strokeColor=#666666;" vertex="1" parent="1">
          <mxGeometry x="860" y="520" width="170" height="95" as="geometry" />
        </mxCell>
        <mxCell id="SldOsNfj7_O7OC7551_o-18" value="" style="endArrow=open;endFill=1;endSize=12;html=1;rounded=0;fontFamily=Verdana;fontSize=16;exitX=0.5;exitY=1;exitDx=0;exitDy=0;entryX=0;entryY=0.5;entryDx=0;entryDy=0;" edge="1" parent="1" source="2LXbQo--C6hEQ35v8pxF-3" target="SldOsNfj7_O7OC7551_o-17">
          <mxGeometry width="160" relative="1" as="geometry">
            <mxPoint x="773.6396103067896" y="423.8908729652603" as="sourcePoint" />
            <mxPoint x="870" y="457.5" as="targetPoint" />
          </mxGeometry>
        </mxCell>
        <mxCell id="SldOsNfj7_O7OC7551_o-20" value="Trading strategy" style="ellipse;whiteSpace=wrap;html=1;fontFamily=Verdana;fontSize=16;fillColor=#bac8d3;strokeColor=#23445d;" vertex="1" parent="1">
          <mxGeometry x="110" y="90" width="140" height="70" as="geometry" />
        </mxCell>
        <mxCell id="SldOsNfj7_O7OC7551_o-21" value="" style="endArrow=open;endFill=1;endSize=12;html=1;rounded=0;fontFamily=Verdana;fontSize=16;entryX=1;entryY=1;entryDx=0;entryDy=0;exitX=0.5;exitY=0.5;exitDx=0;exitDy=0;exitPerimeter=0;" edge="1" parent="1" source="2LXbQo--C6hEQ35v8pxF-1" target="SldOsNfj7_O7OC7551_o-20">
          <mxGeometry width="160" relative="1" as="geometry">
            <mxPoint x="100" y="340" as="sourcePoint" />
            <mxPoint x="260" y="340" as="targetPoint" />
          </mxGeometry>
        </mxCell>
      </root>
    </mxGraphModel>
  </diagram>
  <diagram id="xT_UTIa_lAOCR2Zq_0yf" name="Draw trendline and keylevel">
    <mxGraphModel dx="1185" dy="693" grid="1" gridSize="10" guides="1" tooltips="1" connect="1" arrows="1" fold="1" page="1" pageScale="1" pageWidth="850" pageHeight="1100" math="0" shadow="0">
      <root>
        <mxCell id="0" />
        <mxCell id="1" parent="0" />
        <mxCell id="wbWQdk9JIUh5SgzhBwTY-2" value="KeyLevel" style="swimlane;fontStyle=1;align=center;verticalAlign=top;childLayout=stackLayout;horizontal=1;startSize=26;horizontalStack=0;resizeParent=1;resizeParentMax=0;resizeLast=0;collapsible=1;marginBottom=0;fontFamily=Verdana;fontSize=16;" vertex="1" parent="1">
          <mxGeometry x="250" y="60" width="350" height="310" as="geometry" />
        </mxCell>
        <mxCell id="wbWQdk9JIUh5SgzhBwTY-3" value="- Type (Resistence/Support);&#xa;- TimeCreate;&#xa;- CrossTimes&#xa;- ReachTimes&#xa;- UpperPrice;&#xa;- LowerPrice;&#xa;- Name;" style="text;strokeColor=none;fillColor=none;align=left;verticalAlign=top;spacingLeft=4;spacingRight=4;overflow=hidden;rotatable=0;points=[[0,0.5],[1,0.5]];portConstraint=eastwest;fontFamily=Verdana;fontSize=16;" vertex="1" parent="wbWQdk9JIUh5SgzhBwTY-2">
          <mxGeometry y="26" width="350" height="164" as="geometry" />
        </mxCell>
        <mxCell id="wbWQdk9JIUh5SgzhBwTY-4" value="" style="line;strokeWidth=1;fillColor=none;align=left;verticalAlign=middle;spacingTop=-1;spacingLeft=3;spacingRight=3;rotatable=0;labelPosition=right;points=[];portConstraint=eastwest;fontFamily=Verdana;fontSize=16;" vertex="1" parent="wbWQdk9JIUh5SgzhBwTY-2">
          <mxGeometry y="190" width="350" height="8" as="geometry" />
        </mxCell>
        <mxCell id="wbWQdk9JIUh5SgzhBwTY-5" value="+ Create&#xa;+ Update&#xa;+ Delete&#xa;+ Detect&#xa;+ Draw" style="text;strokeColor=none;fillColor=none;align=left;verticalAlign=top;spacingLeft=4;spacingRight=4;overflow=hidden;rotatable=0;points=[[0,0.5],[1,0.5]];portConstraint=eastwest;fontFamily=Verdana;fontSize=16;" vertex="1" parent="wbWQdk9JIUh5SgzhBwTY-2">
          <mxGeometry y="198" width="350" height="112" as="geometry" />
        </mxCell>
        <mxCell id="wbWQdk9JIUh5SgzhBwTY-7" value="KeyPoint" style="swimlane;fontStyle=1;align=center;verticalAlign=top;childLayout=stackLayout;horizontal=1;startSize=26;horizontalStack=0;resizeParent=1;resizeParentMax=0;resizeLast=0;collapsible=1;marginBottom=0;fontFamily=Verdana;fontSize=16;" vertex="1" parent="1">
          <mxGeometry x="670" y="50" width="350" height="270" as="geometry" />
        </mxCell>
        <mxCell id="wbWQdk9JIUh5SgzhBwTY-8" value="- Type (high/low);&#xa;- TimeCreate;&#xa;- Price;&#xa;- DTime;&#xa;- DPrice;&#xa;- Name;" style="text;strokeColor=none;fillColor=none;align=left;verticalAlign=top;spacingLeft=4;spacingRight=4;overflow=hidden;rotatable=0;points=[[0,0.5],[1,0.5]];portConstraint=eastwest;fontFamily=Verdana;fontSize=16;" vertex="1" parent="wbWQdk9JIUh5SgzhBwTY-7">
          <mxGeometry y="26" width="350" height="164" as="geometry" />
        </mxCell>
        <mxCell id="wbWQdk9JIUh5SgzhBwTY-9" value="" style="line;strokeWidth=1;fillColor=none;align=left;verticalAlign=middle;spacingTop=-1;spacingLeft=3;spacingRight=3;rotatable=0;labelPosition=right;points=[];portConstraint=eastwest;fontFamily=Verdana;fontSize=16;" vertex="1" parent="wbWQdk9JIUh5SgzhBwTY-7">
          <mxGeometry y="190" width="350" height="8" as="geometry" />
        </mxCell>
        <mxCell id="wbWQdk9JIUh5SgzhBwTY-10" value="+ Create&#xa;+ Delete&#xa;+ Detect" style="text;strokeColor=none;fillColor=none;align=left;verticalAlign=top;spacingLeft=4;spacingRight=4;overflow=hidden;rotatable=0;points=[[0,0.5],[1,0.5]];portConstraint=eastwest;fontFamily=Verdana;fontSize=16;" vertex="1" parent="wbWQdk9JIUh5SgzhBwTY-7">
          <mxGeometry y="198" width="350" height="72" as="geometry" />
        </mxCell>
        <mxCell id="wbWQdk9JIUh5SgzhBwTY-13" value="Trendline" style="swimlane;fontStyle=1;align=center;verticalAlign=top;childLayout=stackLayout;horizontal=1;startSize=26;horizontalStack=0;resizeParent=1;resizeParentMax=0;resizeLast=0;collapsible=1;marginBottom=0;fontFamily=Verdana;fontSize=16;" vertex="1" parent="1">
          <mxGeometry x="730" y="390" width="350" height="250" as="geometry" />
        </mxCell>
        <mxCell id="wbWQdk9JIUh5SgzhBwTY-14" value="- Type (uptrend/downtrend);&#xa;- TimeCreate;&#xa;- ListKeyPoint&#xa;- Width&#xa;- DPrice;&#xa;- Name;" style="text;strokeColor=none;fillColor=none;align=left;verticalAlign=top;spacingLeft=4;spacingRight=4;overflow=hidden;rotatable=0;points=[[0,0.5],[1,0.5]];portConstraint=eastwest;fontFamily=Verdana;fontSize=16;" vertex="1" parent="wbWQdk9JIUh5SgzhBwTY-13">
          <mxGeometry y="26" width="350" height="144" as="geometry" />
        </mxCell>
        <mxCell id="wbWQdk9JIUh5SgzhBwTY-15" value="" style="line;strokeWidth=1;fillColor=none;align=left;verticalAlign=middle;spacingTop=-1;spacingLeft=3;spacingRight=3;rotatable=0;labelPosition=right;points=[];portConstraint=eastwest;fontFamily=Verdana;fontSize=16;" vertex="1" parent="wbWQdk9JIUh5SgzhBwTY-13">
          <mxGeometry y="170" width="350" height="8" as="geometry" />
        </mxCell>
        <mxCell id="wbWQdk9JIUh5SgzhBwTY-16" value="+ Create&#xa;+ Delete&#xa;+ Detect" style="text;strokeColor=none;fillColor=none;align=left;verticalAlign=top;spacingLeft=4;spacingRight=4;overflow=hidden;rotatable=0;points=[[0,0.5],[1,0.5]];portConstraint=eastwest;fontFamily=Verdana;fontSize=16;" vertex="1" parent="wbWQdk9JIUh5SgzhBwTY-13">
          <mxGeometry y="178" width="350" height="72" as="geometry" />
        </mxCell>
      </root>
    </mxGraphModel>
  </diagram>
</mxfile>
